# 3ds Max Wavefront OBJ Exporter v0.97b - (c)2007 guruware
# File Created: 19.01.2015 20:49:28

mtllib bendbox.mtl

#
# object Box01
#
o Box
v  -22.5691 -2.5989 22.5922
v  -22.5691 -2.5989 -22.5918
v  22.6149 -2.5989 -22.5918
v  22.6149 -2.5989 22.5922
v  -14.8994 35.0845 33.9629
v  26.9790 18.8434 29.0623
v  31.8797 42.9218 -8.8562
v  -9.9988 59.1628 -3.9555
v  22.6603 -0.2720 22.6595
v  -22.4893 1.4905 22.7106
v  22.7964 2.0436 22.8613
v  -22.2501 5.5601 23.0652
v  23.0225 4.3367 23.1965
v  -21.8527 9.5899 23.6542
v  23.3375 6.5959 23.6635
v  -21.2992 13.5603 24.4749
v  23.7398 8.8103 24.2600
v  -20.5921 17.4520 25.5232
v  24.2276 10.9691 24.9831
v  -19.7349 21.2460 26.7941
v  24.7984 13.0619 25.8293
v  -18.7318 24.9238 28.2812
v  25.4494 15.0783 26.7944
v  -17.5877 28.4676 29.9774
v  26.1774 17.0086 27.8739
v  -16.3082 31.8599 31.8744
v  22.7113 2.3410 -22.4488
v  23.0003 7.2570 -22.0205
v  23.4803 12.1249 -21.3089
v  24.1489 16.9210 -20.3175
v  25.0031 21.6221 -19.0512
v  26.0385 26.2052 -17.5161
v  27.2502 30.6479 -15.7196
v  28.6323 34.9287 -13.6707
v  30.1779 39.0266 -11.3791
v  -22.4382 4.1035 -22.3978
v  -22.0462 10.7734 -21.8166
v  -21.3950 17.3781 -20.8511
v  -20.4877 23.8854 -19.5060
v  -19.3288 30.2638 -17.7879
v  -17.9239 36.4820 -15.7051
v  -16.2799 42.5099 -13.2677
v  -14.4048 48.3179 -10.4877
v  -12.3077 53.8779 -7.3786
# 44 vertices

vn -0.0000 -1.0000 -0.0000
vn 0.3594 0.7660 0.5329
vn 0.0000 -0.0289 0.9996
vn -0.0011 -0.0578 0.9983
vn -0.0045 -0.1154 0.9933
vn -0.0101 -0.1724 0.9850
vn -0.0180 -0.2285 0.9734
vn -0.0280 -0.2835 0.9586
vn -0.0401 -0.3372 0.9406
vn -0.0543 -0.3892 0.9195
vn -0.0704 -0.4393 0.8956
vn -0.0885 -0.4873 0.8687
vn -0.0980 -0.5105 0.8543
vn 0.9998 -0.0195 0.0000
vn 0.9998 -0.0195 -0.0000
vn 0.9992 -0.0390 -0.0011
vn 0.9970 -0.0778 -0.0045
vn 0.9932 -0.1163 -0.0101
vn 0.9879 -0.1541 -0.0180
vn 0.9811 -0.1913 -0.0280
vn 0.9730 -0.2274 -0.0401
vn 0.9634 -0.2625 -0.0543
vn 0.9525 -0.2963 -0.0704
vn 0.9403 -0.3287 -0.0885
vn 0.9337 -0.3444 -0.0980
vn -0.0000 0.0289 -0.9996
vn 0.0011 0.0578 -0.9983
vn 0.0045 0.1154 -0.9933
vn 0.0101 0.1724 -0.9850
vn 0.0180 0.2285 -0.9734
vn 0.0280 0.2835 -0.9586
vn 0.0401 0.3372 -0.9406
vn 0.0543 0.3892 -0.9195
vn 0.0704 0.4393 -0.8956
vn 0.0885 0.4873 -0.8687
vn 0.0980 0.5105 -0.8543
vn -0.9998 0.0195 0.0000
vn -0.9992 0.0390 0.0011
vn -0.9970 0.0778 0.0045
vn -0.9932 0.1163 0.0101
vn -0.9879 0.1541 0.0180
vn -0.9811 0.1913 0.0280
vn -0.9730 0.2274 0.0401
vn -0.9634 0.2625 0.0543
vn -0.9525 0.2963 0.0704
vn -0.9403 0.3287 0.0885
vn -0.9337 0.3444 0.0980
# 47 vertex normals

vt 0.0000 0.0000 0.0000
vt 1.0000 0.0000 0.0000
vt 1.0000 1.0000 0.0000
vt 0.0000 1.0000 0.0000
# 4 texture coords

g Box01
usemtl 01___Default
s 2
f 1/1/1 2/2/1 3/3/1 
f 3/3/1 4/4/1 1/1/1 
s 4
f 5/1/2 6/2/2 7/3/2 
f 7/3/2 8/4/2 5/1/2 
s 8
f 1/1/3 4/2/3 9/3/4 
f 9/3/4 10/4/4 1/1/3 
f 10/1/4 9/2/4 11/3/5 
f 11/3/5 12/4/5 10/1/4 
f 12/1/5 11/2/5 13/3/6 
f 13/3/6 14/4/6 12/1/5 
f 14/1/6 13/2/6 15/3/7 
f 15/3/7 16/4/7 14/1/6 
f 16/1/7 15/2/7 17/3/8 
f 17/3/8 18/4/8 16/1/7 
f 18/1/8 17/2/8 19/3/9 
f 19/3/9 20/4/9 18/1/8 
f 20/1/9 19/2/9 21/3/10 
f 21/3/10 22/4/10 20/1/9 
f 22/1/10 21/2/10 23/3/11 
f 23/3/11 24/4/11 22/1/10 
f 24/1/11 23/2/11 25/3/12 
f 25/3/12 26/4/12 24/1/11 
f 26/3/12 25/4/12 6/1/13 
f 6/1/13 5/2/13 26/3/12 
s 16
f 4/1/14 3/2/15 27/3/16 
f 27/3/16 9/4/16 4/1/14 
f 9/1/16 27/2/16 28/3/17 
f 28/3/17 11/4/17 9/1/16 
f 11/1/17 28/2/17 29/3/18 
f 29/3/18 13/4/18 11/1/17 
f 13/1/18 29/2/18 30/3/19 
f 30/3/19 15/4/19 13/1/18 
f 15/1/19 30/2/19 31/3/20 
f 31/3/20 17/4/20 15/1/19 
f 17/1/20 31/2/20 32/3/21 
f 32/3/21 19/4/21 17/1/20 
f 19/1/21 32/2/21 33/3/22 
f 33/3/22 21/4/22 19/1/21 
f 21/1/22 33/2/22 34/3/23 
f 34/3/23 23/4/23 21/1/22 
f 23/1/23 34/2/23 35/3/24 
f 35/3/24 25/4/24 23/1/23 
f 25/3/24 35/4/24 7/1/25 
f 7/1/25 6/2/25 25/3/24 
s 32
f 3/1/26 2/2/26 36/3/27 
f 36/3/27 27/4/27 3/1/26 
f 27/1/27 36/2/27 37/3/28 
f 37/3/28 28/4/28 27/1/27 
f 28/1/28 37/2/28 38/3/29 
f 38/3/29 29/4/29 28/1/28 
f 29/1/29 38/2/29 39/3/30 
f 39/3/30 30/4/30 29/1/29 
f 30/1/30 39/2/30 40/3/31 
f 40/3/31 31/4/31 30/1/30 
f 31/1/31 40/2/31 41/3/32 
f 41/3/32 32/4/32 31/1/31 
f 32/1/32 41/2/32 42/3/33 
f 42/3/33 33/4/33 32/1/32 
f 33/1/33 42/2/33 43/3/34 
f 43/3/34 34/4/34 33/1/33 
f 34/1/34 43/2/34 44/3/35 
f 44/3/35 35/4/35 34/1/34 
f 35/3/35 44/4/35 8/1/36 
f 8/1/36 7/2/36 35/3/35 
s 64
f 2/1/37 1/2/37 10/3/38 
f 10/3/38 36/4/38 2/1/37 
f 36/1/38 10/2/38 12/3/39 
f 12/3/39 37/4/39 36/1/38 
f 37/1/39 12/2/39 14/3/40 
f 14/3/40 38/4/40 37/1/39 
f 38/1/40 14/2/40 16/3/41 
f 16/3/41 39/4/41 38/1/40 
f 39/1/41 16/2/41 18/3/42 
f 18/3/42 40/4/42 39/1/41 
f 40/1/42 18/2/42 20/3/43 
f 20/3/43 41/4/43 40/1/42 
f 41/1/43 20/2/43 22/3/44 
f 22/3/44 42/4/44 41/1/43 
f 42/1/44 22/2/44 24/3/45 
f 24/3/45 43/4/45 42/1/44 
f 43/1/45 24/2/45 26/3/46 
f 26/3/46 44/4/46 43/1/45 
f 44/3/46 26/4/46 5/1/47 
f 5/1/47 8/2/47 44/3/46 
# 84 faces

