# 3ds Max Wavefront OBJ Exporter v0.97b - (c)2007 guruware
# File Created: 17.09.2014 00:02:00

mtllib cbox.mtl

#
# object Box01
#
o Box
v  -27.3004 -23.9516 0.6435
v  -27.3004 21.8601 0.4973
v  26.7167 21.8601 0.4973
v  26.7167 -23.9516 0.6435
# 4 vertices

vn 0.0000 -0.0032 -1.0000
vn 0.0000 0.0032 1.0000
vn 1.0000 0.0000 -0.0000
# 3 vertex normals

vt 1.3028 -0.1809 0.5000
vt 1.3028 1.1809 0.5000
vt -0.3028 1.1809 0.5000
vt -0.3028 -0.1809 0.5000
vt -0.1809 0.5000 -0.3028
vt -0.1809 0.5000 1.3028
vt 1.1809 0.5000 1.3028
vt 1.1809 0.5000 -0.3028
# 8 texture coords

g Box01
usemtl 01___Default
s 2
f 1/1/1 2/2/1 3/3/1 
f 3/3/1 4/4/1 1/1/1 
s 4
f 1/4/2 4/1/2 3/2/2 
f 3/2/2 2/3/2 1/4/2 
s 8
f 1/5/3 4/6/3 4/6/3 
f 4/6/3 1/5/3 1/5/3 
s 16
f 4/6/3 3/7/3 3/7/3 
f 3/7/3 4/6/3 4/6/3 
s 32
f 3/7/3 2/8/3 2/8/3 
f 2/8/3 3/7/3 3/7/3 
s 64
f 2/8/3 1/5/3 1/5/3 
f 1/5/3 2/8/3 2/8/3 
# 12 faces

