# 3ds Max Wavefront OBJ Exporter v0.97b - (c)2007 guruware
# File Created: 26.12.2014 13:59:51

mtllib objs.mtl

#
# object Cylinder01
#
o Tank
v  0.0000 0.0199 -2.7521
v  17.9023 10.3557 -2.7521
v  20.6717 0.0199 -2.7521
v  10.3359 17.9221 -2.7521
v  -0.0000 20.6916 -2.7521
v  -10.3359 17.9221 -2.7521
v  -17.9023 10.3557 -2.7521
v  -20.6717 0.0199 -2.7521
v  -17.9023 -10.3160 -2.7521
v  -10.3359 -17.8824 -2.7521
v  -0.0000 -20.6519 -2.7521
v  10.3359 -17.8824 -2.7521
v  17.9023 -10.3160 -2.7521
v  17.9023 10.3557 2.7179
v  20.6717 0.0199 2.7179
v  10.3359 17.9221 2.7179
v  -0.0000 20.6916 2.7179
v  -10.3359 17.9221 2.7179
v  -17.9023 10.3557 2.7179
v  -20.6717 0.0199 2.7179
v  -17.9023 -10.3160 2.7179
v  -10.3359 -17.8824 2.7179
v  -0.0000 -20.6519 2.7179
v  10.3359 -17.8824 2.7179
v  17.9023 -10.3160 2.7179
v  0.0000 0.0199 2.7179
# 26 vertices

vn 0.0000 0.0000 -1.0000
vn 1.0000 -0.0000 -0.0000
vn 0.8660 0.5000 0.0000
vn 0.5000 0.8660 0.0000
vn -0.0000 1.0000 0.0000
vn 0.0000 1.0000 0.0000
vn -0.5000 0.8660 0.0000
vn -0.8660 0.5000 0.0000
vn -1.0000 0.0000 0.0000
vn -0.8660 -0.5000 -0.0000
vn -0.5000 -0.8660 -0.0000
vn -0.0000 -1.0000 -0.0000
vn 0.5000 -0.8660 -0.0000
vn 0.8660 -0.5000 -0.0000
vn 0.0000 -0.0000 1.0000
# 15 vertex normals

vt 0.5000 0.5000 0.0005
vt 0.9326 0.7536 0.0005
vt 0.9995 0.5000 0.0005
vt 0.7498 0.9393 0.0005
vt 0.5000 1.0072 0.0005
vt 0.2502 0.9393 0.0005
vt 0.0674 0.7536 0.0005
vt 0.0005 0.5000 0.0005
vt 0.0674 0.2464 0.0005
vt 0.2502 0.0607 0.0005
vt 0.5000 -0.0072 0.0005
vt 0.7497 0.0607 0.0005
vt 0.9326 0.2464 0.0005
vt 0.9326 0.7536 0.9995
vt 0.9995 0.5000 0.9995
vt 0.7498 0.9393 0.9995
vt 0.5000 1.0072 0.9995
vt 0.2502 0.9393 0.9995
vt 0.0674 0.7536 0.9995
vt 0.0005 0.5000 0.9995
vt 0.0674 0.2464 0.9995
vt 0.2502 0.0607 0.9995
vt 0.5000 -0.0072 0.9995
vt 0.7497 0.0607 0.9995
vt 0.9326 0.2464 0.9995
vt 0.5000 0.5000 0.9995
# 26 texture coords

g Cylinder01
usemtl 01___Default
s 1
f 1/1/1 2/2/1 3/3/1 
f 1/1/1 4/4/1 2/2/1 
f 1/1/1 5/5/1 4/4/1 
f 1/1/1 6/6/1 5/5/1 
f 1/1/1 7/7/1 6/6/1 
f 1/1/1 8/8/1 7/7/1 
f 1/1/1 9/9/1 8/8/1 
f 1/1/1 10/10/1 9/9/1 
f 1/1/1 11/11/1 10/10/1 
f 1/1/1 12/12/1 11/11/1 
f 1/1/1 13/13/1 12/12/1 
f 1/1/1 3/3/1 13/13/1 
s 8
f 3/3/2 14/14/3 15/15/2 
f 3/3/2 2/2/3 14/14/3 
f 2/2/3 16/16/4 14/14/3 
f 2/2/3 4/4/4 16/16/4 
f 4/4/4 17/17/5 16/16/4 
f 4/4/4 5/5/6 17/17/5 
f 5/5/6 18/18/7 17/17/5 
f 5/5/6 6/6/7 18/18/7 
f 6/6/7 19/19/8 18/18/7 
f 6/6/7 7/7/8 19/19/8 
f 7/7/8 20/20/9 19/19/8 
f 7/7/8 8/8/9 20/20/9 
f 8/8/9 21/21/10 20/20/9 
f 8/8/9 9/9/10 21/21/10 
f 9/9/10 22/22/11 21/21/10 
f 9/9/10 10/10/11 22/22/11 
f 10/10/11 23/23/12 22/22/11 
f 10/10/11 11/11/12 23/23/12 
f 11/11/12 24/24/13 23/23/12 
f 11/11/12 12/12/13 24/24/13 
f 12/12/13 25/25/14 24/24/13 
f 12/12/13 13/13/14 25/25/14 
f 13/13/14 15/15/2 25/25/14 
f 13/13/14 3/3/2 15/15/2 
s 1
f 26/26/15 15/15/15 14/14/15 
f 26/26/15 14/14/15 16/16/15 
f 26/26/15 16/16/15 17/17/15 
f 26/26/15 17/17/15 18/18/15 
f 26/26/15 18/18/15 19/19/15 
f 26/26/15 19/19/15 20/20/15 
f 26/26/15 20/20/15 21/21/15 
f 26/26/15 21/21/15 22/22/15 
f 26/26/15 22/22/15 23/23/15 
f 26/26/15 23/23/15 24/24/15 
f 26/26/15 24/24/15 25/25/15 
f 26/26/15 25/25/15 15/15/15 
# 48 faces

