# 3ds Max Wavefront OBJ Exporter v0.97b - (c)2007 guruware
# File Created: 30.08.2016 02:46:55

mtllib spherelow.mtl

#
# object Sphere01
#
o S
v  0.0000 27.3787 -0.1770
v  -0.0000 25.9089 -7.0915
v  -2.8124 25.9089 -6.4937
v  -5.1385 25.9089 -4.8037
v  -6.5761 25.9089 -2.3137
v  -6.8766 25.9089 0.5458
v  -5.9882 25.9089 3.2803
v  -4.0643 25.9089 5.4170
v  -1.4376 25.9089 6.5864
v  1.4376 25.9089 6.5864
v  4.0643 25.9089 5.4170
v  5.9882 25.9089 3.2803
v  6.8766 25.9089 0.5458
v  6.5761 25.9089 -2.3137
v  5.1385 25.9089 -4.8037
v  2.8124 25.9089 -6.4937
v  -0.0000 21.7539 -12.8105
v  -5.1385 21.7539 -11.7182
v  -9.3885 21.7539 -8.6304
v  -12.0151 21.7539 -4.0809
v  -12.5643 21.7539 1.1436
v  -10.9409 21.7539 6.1397
v  -7.4258 21.7539 10.0437
v  -2.6266 21.7539 12.1804
v  2.6266 21.7539 12.1804
v  7.4258 21.7539 10.0437
v  10.9409 21.7539 6.1397
v  12.5643 21.7539 1.1436
v  12.0151 21.7539 -4.0809
v  9.3885 21.7539 -8.6304
v  5.1385 21.7539 -11.7182
v  -0.0000 15.6319 -16.3450
v  -6.5761 15.6319 -14.9472
v  -12.0151 15.6319 -10.9955
v  -15.3766 15.6319 -5.1732
v  -16.0794 15.6319 1.5130
v  -14.0019 15.6319 7.9070
v  -9.5033 15.6319 12.9032
v  -3.3615 15.6319 15.6377
v  3.3615 15.6319 15.6377
v  9.5033 15.6319 12.9032
v  14.0019 15.6319 7.9070
v  16.0794 15.6319 1.5130
v  15.3766 15.6319 -5.1732
v  12.0151 15.6319 -10.9955
v  6.5761 15.6319 -14.9472
v  -0.0000 8.6017 -17.0839
v  -6.8766 8.6017 -15.6222
v  -12.5643 8.6017 -11.4899
v  -16.0794 8.6017 -5.4015
v  -16.8143 8.6017 1.5903
v  -14.6418 8.6017 8.2764
v  -9.9376 8.6017 13.5010
v  -3.5151 8.6017 16.3604
v  3.5151 8.6017 16.3604
v  9.9376 8.6017 13.5010
v  14.6418 8.6017 8.2764
v  16.8143 8.6017 1.5903
v  16.0794 8.6017 -5.4015
v  12.5643 8.6017 -11.4899
v  6.8766 8.6017 -15.6222
v  -0.0000 1.8786 -14.8994
v  -5.9882 1.8786 -13.6266
v  -10.9409 1.8786 -10.0282
v  -14.0019 1.8786 -4.7265
v  -14.6418 1.8786 1.3619
v  -12.7500 1.8786 7.1842
v  -8.6536 1.8786 11.7337
v  -3.0610 1.8786 14.2237
v  3.0610 1.8786 14.2237
v  8.6536 1.8786 11.7337
v  12.7500 1.8786 7.1842
v  14.6418 1.8786 1.3619
v  14.0019 1.8786 -4.7265
v  10.9409 1.8786 -10.0282
v  5.9881 1.8786 -13.6266
v  -0.0000 -3.3746 -10.1693
v  -4.0643 -3.3746 -9.3055
v  -7.4258 -3.3746 -6.8632
v  -9.5033 -3.3746 -3.2648
v  -9.9376 -3.3746 0.8675
v  -8.6536 -3.3746 4.8192
v  -5.8734 -3.3746 7.9070
v  -2.0775 -3.3746 9.5970
v  2.0775 -3.3746 9.5970
v  5.8734 -3.3746 7.9070
v  8.6536 -3.3746 4.8192
v  9.9376 -3.3746 0.8675
v  9.5033 -3.3746 -3.2648
v  7.4258 -3.3746 -6.8632
v  4.0642 -3.3746 -9.3055
v  0.0000 -6.6213 -0.1770
# 92 vertices

vn -0.0000 1.0000 -0.0000
vn -0.0000 0.9031 -0.4293
vn -0.1746 0.9031 -0.3922
vn -0.3191 0.9031 -0.2873
vn -0.4083 0.9031 -0.1327
vn -0.4270 0.9031 0.0449
vn -0.3718 0.9031 0.2147
vn -0.2524 0.9031 0.3473
vn -0.0893 0.9031 0.4199
vn 0.0893 0.9031 0.4199
vn 0.2524 0.9031 0.3473
vn 0.3718 0.9031 0.2147
vn 0.4270 0.9031 0.0449
vn 0.4083 0.9031 -0.1327
vn 0.3191 0.9031 -0.2873
vn 0.1746 0.9031 -0.3922
vn -0.0000 0.6557 -0.7550
vn -0.3071 0.6557 -0.6897
vn -0.5611 0.6557 -0.5052
vn -0.7181 0.6557 -0.2333
vn -0.7509 0.6557 0.0789
vn -0.6539 0.6557 0.3775
vn -0.4438 0.6557 0.6108
vn -0.1570 0.6557 0.7385
vn 0.1570 0.6557 0.7385
vn 0.4438 0.6557 0.6108
vn 0.6539 0.6557 0.3775
vn 0.7509 0.6557 0.0789
vn 0.7181 0.6557 -0.2333
vn 0.5611 0.6557 -0.5052
vn 0.3071 0.6557 -0.6897
vn -0.0000 0.3012 -0.9536
vn -0.3878 0.3012 -0.8711
vn -0.7086 0.3012 -0.6381
vn -0.9069 0.3012 -0.2947
vn -0.9483 0.3012 0.0997
vn -0.8258 0.3012 0.4768
vn -0.5605 0.3012 0.7714
vn -0.1983 0.3012 0.9327
vn 0.1983 0.3012 0.9327
vn 0.5605 0.3012 0.7714
vn 0.8258 0.3012 0.4768
vn 0.9483 0.3012 0.0997
vn 0.9069 0.3012 -0.2947
vn 0.7086 0.3012 -0.6381
vn 0.3878 0.3012 -0.8711
vn -0.0000 -0.1018 -0.9948
vn -0.4046 -0.1018 -0.9088
vn -0.7393 -0.1018 -0.6657
vn -0.9461 -0.1018 -0.3074
vn -0.9894 -0.1018 0.1040
vn -0.8615 -0.1018 0.4974
vn -0.5847 -0.1018 0.8048
vn -0.2068 -0.1018 0.9731
vn 0.2068 -0.1018 0.9731
vn 0.5847 -0.1018 0.8048
vn 0.8615 -0.1018 0.4974
vn 0.9894 -0.1018 0.1040
vn 0.9461 -0.1018 -0.3074
vn 0.7393 -0.1018 -0.6657
vn 0.4046 -0.1018 -0.9088
vn -0.0000 -0.4884 -0.8726
vn -0.3549 -0.4884 -0.7972
vn -0.6485 -0.4884 -0.5839
vn -0.8299 -0.4884 -0.2696
vn -0.8678 -0.4884 0.0912
vn -0.7557 -0.4884 0.4363
vn -0.5129 -0.4884 0.7060
vn -0.1814 -0.4884 0.8535
vn 0.1814 -0.4884 0.8535
vn 0.5129 -0.4884 0.7060
vn 0.7557 -0.4884 0.4363
vn 0.8678 -0.4884 0.0912
vn 0.8299 -0.4884 -0.2697
vn 0.6485 -0.4884 -0.5839
vn 0.3549 -0.4884 -0.7972
vn -0.0000 -0.8230 -0.5680
vn -0.2310 -0.8230 -0.5189
vn -0.4221 -0.8230 -0.3800
vn -0.5402 -0.8230 -0.1755
vn -0.5649 -0.8230 0.0594
vn -0.4919 -0.8230 0.2840
vn -0.3338 -0.8230 0.4595
vn -0.1181 -0.8230 0.5556
vn 0.1181 -0.8230 0.5556
vn 0.3338 -0.8230 0.4595
vn 0.4919 -0.8230 0.2840
vn 0.5649 -0.8230 0.0594
vn 0.5402 -0.8230 -0.1755
vn 0.4221 -0.8230 -0.3800
vn 0.2310 -0.8230 -0.5189
vn 0.0000 -1.0000 -0.0000
# 92 vertex normals

vt 0.0000 1.0000 0.0000
vt 0.0000 0.8667 0.0000
vt 0.0667 0.8667 0.0000
vt 0.0667 1.0000 0.0000
vt 0.1333 0.8667 0.0000
vt 0.1333 1.0000 0.0000
vt 0.2000 0.8667 0.0000
vt 0.2000 1.0000 0.0000
vt 0.2667 0.8667 0.0000
vt 0.2667 1.0000 0.0000
vt 0.3333 0.8667 0.0000
vt 0.3333 1.0000 0.0000
vt 0.4000 0.8667 0.0000
vt 0.4000 1.0000 0.0000
vt 0.4667 0.8667 0.0000
vt 0.4667 1.0000 0.0000
vt 0.5333 0.8667 0.0000
vt 0.5333 1.0000 0.0000
vt 0.6000 0.8667 0.0000
vt 0.6000 1.0000 0.0000
vt 0.6667 0.8667 0.0000
vt 0.6667 1.0000 0.0000
vt 0.7333 0.8667 0.0000
vt 0.7333 1.0000 0.0000
vt 0.8000 0.8667 0.0000
vt 0.8000 1.0000 0.0000
vt 0.8667 0.8667 0.0000
vt 0.8667 1.0000 0.0000
vt 0.9333 0.8667 0.0000
vt 0.9333 1.0000 0.0000
vt 1.0000 0.8667 0.0000
vt 0.0000 0.7333 0.0000
vt 0.0667 0.7333 0.0000
vt 0.1333 0.7333 0.0000
vt 0.2000 0.7333 0.0000
vt 0.2667 0.7333 0.0000
vt 0.3333 0.7333 0.0000
vt 0.4000 0.7333 0.0000
vt 0.4667 0.7333 0.0000
vt 0.5333 0.7333 0.0000
vt 0.6000 0.7333 0.0000
vt 0.6667 0.7333 0.0000
vt 0.7333 0.7333 0.0000
vt 0.8000 0.7333 0.0000
vt 0.8667 0.7333 0.0000
vt 0.9333 0.7333 0.0000
vt 1.0000 0.7333 0.0000
vt 0.0000 0.6000 0.0000
vt 0.0667 0.6000 0.0000
vt 0.1333 0.6000 0.0000
vt 0.2000 0.6000 0.0000
vt 0.2667 0.6000 0.0000
vt 0.3333 0.6000 0.0000
vt 0.4000 0.6000 0.0000
vt 0.4667 0.6000 0.0000
vt 0.5333 0.6000 0.0000
vt 0.6000 0.6000 0.0000
vt 0.6667 0.6000 0.0000
vt 0.7333 0.6000 0.0000
vt 0.8000 0.6000 0.0000
vt 0.8667 0.6000 0.0000
vt 0.9333 0.6000 0.0000
vt 1.0000 0.6000 0.0000
vt 0.0000 0.4667 0.0000
vt 0.0667 0.4667 0.0000
vt 0.1333 0.4667 0.0000
vt 0.2000 0.4667 0.0000
vt 0.2667 0.4667 0.0000
vt 0.3333 0.4667 0.0000
vt 0.4000 0.4667 0.0000
vt 0.4667 0.4667 0.0000
vt 0.5333 0.4667 0.0000
vt 0.6000 0.4667 0.0000
vt 0.6667 0.4667 0.0000
vt 0.7333 0.4667 0.0000
vt 0.8000 0.4667 0.0000
vt 0.8667 0.4667 0.0000
vt 0.9333 0.4667 0.0000
vt 1.0000 0.4667 0.0000
vt 0.0000 0.3333 0.0000
vt 0.0667 0.3333 0.0000
vt 0.1333 0.3333 0.0000
vt 0.2000 0.3333 0.0000
vt 0.2667 0.3333 0.0000
vt 0.3333 0.3333 0.0000
vt 0.4000 0.3333 0.0000
vt 0.4667 0.3333 0.0000
vt 0.5333 0.3333 0.0000
vt 0.6000 0.3333 0.0000
vt 0.6667 0.3333 0.0000
vt 0.7333 0.3333 0.0000
vt 0.8000 0.3333 0.0000
vt 0.8667 0.3333 0.0000
vt 0.9333 0.3333 0.0000
vt 1.0000 0.3333 0.0000
vt 0.0000 0.2000 0.0000
vt 0.0667 0.2000 0.0000
vt 0.1333 0.2000 0.0000
vt 0.2000 0.2000 0.0000
vt 0.2667 0.2000 0.0000
vt 0.3333 0.2000 0.0000
vt 0.4000 0.2000 0.0000
vt 0.4667 0.2000 0.0000
vt 0.5333 0.2000 0.0000
vt 0.6000 0.2000 0.0000
vt 0.6667 0.2000 0.0000
vt 0.7333 0.2000 0.0000
vt 0.8000 0.2000 0.0000
vt 0.8667 0.2000 0.0000
vt 0.9333 0.2000 0.0000
vt 1.0000 0.2000 0.0000
vt 0.0000 0.0667 0.0000
vt 0.0667 0.0667 0.0000
vt 0.1333 0.0667 0.0000
vt 0.2000 0.0667 0.0000
vt 0.2667 0.0667 0.0000
vt 0.3333 0.0667 0.0000
vt 0.4000 0.0667 0.0000
vt 0.4667 0.0667 0.0000
vt 0.5333 0.0667 0.0000
vt 0.6000 0.0667 0.0000
vt 0.6667 0.0667 0.0000
vt 0.7333 0.0667 0.0000
vt 0.8000 0.0667 0.0000
vt 0.8667 0.0667 0.0000
vt 0.9333 0.0667 0.0000
# 126 texture coords

g Sphere01
usemtl wire_166229229
s 1
f 1/1/1 2/2/2 3/3/3 
f 1/4/1 3/3/3 4/5/4 
f 1/6/1 4/5/4 5/7/5 
f 1/8/1 5/7/5 6/9/6 
f 1/10/1 6/9/6 7/11/7 
f 1/12/1 7/11/7 8/13/8 
f 1/14/1 8/13/8 9/15/9 
f 1/16/1 9/15/9 10/17/10 
f 1/18/1 10/17/10 11/19/11 
f 1/20/1 11/19/11 12/21/12 
f 1/22/1 12/21/12 13/23/13 
f 1/24/1 13/23/13 14/25/14 
f 1/26/1 14/25/14 15/27/15 
f 1/28/1 15/27/15 16/29/16 
f 1/30/1 16/29/16 2/31/2 
f 2/2/2 17/32/17 18/33/18 
f 2/2/2 18/33/18 3/3/3 
f 3/3/3 18/33/18 19/34/19 
f 3/3/3 19/34/19 4/5/4 
f 4/5/4 19/34/19 20/35/20 
f 4/5/4 20/35/20 5/7/5 
f 5/7/5 20/35/20 21/36/21 
f 5/7/5 21/36/21 6/9/6 
f 6/9/6 21/36/21 22/37/22 
f 6/9/6 22/37/22 7/11/7 
f 7/11/7 22/37/22 23/38/23 
f 7/11/7 23/38/23 8/13/8 
f 8/13/8 23/38/23 24/39/24 
f 8/13/8 24/39/24 9/15/9 
f 9/15/9 24/39/24 25/40/25 
f 9/15/9 25/40/25 10/17/10 
f 10/17/10 25/40/25 26/41/26 
f 10/17/10 26/41/26 11/19/11 
f 11/19/11 26/41/26 27/42/27 
f 11/19/11 27/42/27 12/21/12 
f 12/21/12 27/42/27 28/43/28 
f 12/21/12 28/43/28 13/23/13 
f 13/23/13 28/43/28 29/44/29 
f 13/23/13 29/44/29 14/25/14 
f 14/25/14 29/44/29 30/45/30 
f 14/25/14 30/45/30 15/27/15 
f 15/27/15 30/45/30 31/46/31 
f 15/27/15 31/46/31 16/29/16 
f 16/29/16 31/46/31 17/47/17 
f 16/29/16 17/47/17 2/31/2 
f 17/32/17 32/48/32 33/49/33 
f 17/32/17 33/49/33 18/33/18 
f 18/33/18 33/49/33 34/50/34 
f 18/33/18 34/50/34 19/34/19 
f 19/34/19 34/50/34 35/51/35 
f 19/34/19 35/51/35 20/35/20 
f 20/35/20 35/51/35 36/52/36 
f 20/35/20 36/52/36 21/36/21 
f 21/36/21 36/52/36 37/53/37 
f 21/36/21 37/53/37 22/37/22 
f 22/37/22 37/53/37 38/54/38 
f 22/37/22 38/54/38 23/38/23 
f 23/38/23 38/54/38 39/55/39 
f 23/38/23 39/55/39 24/39/24 
f 24/39/24 39/55/39 40/56/40 
f 24/39/24 40/56/40 25/40/25 
f 25/40/25 40/56/40 41/57/41 
f 25/40/25 41/57/41 26/41/26 
f 26/41/26 41/57/41 42/58/42 
f 26/41/26 42/58/42 27/42/27 
f 27/42/27 42/58/42 43/59/43 
f 27/42/27 43/59/43 28/43/28 
f 28/43/28 43/59/43 44/60/44 
f 28/43/28 44/60/44 29/44/29 
f 29/44/29 44/60/44 45/61/45 
f 29/44/29 45/61/45 30/45/30 
f 30/45/30 45/61/45 46/62/46 
f 30/45/30 46/62/46 31/46/31 
f 31/46/31 46/62/46 32/63/32 
f 31/46/31 32/63/32 17/47/17 
f 32/48/32 47/64/47 48/65/48 
f 32/48/32 48/65/48 33/49/33 
f 33/49/33 48/65/48 49/66/49 
f 33/49/33 49/66/49 34/50/34 
f 34/50/34 49/66/49 50/67/50 
f 34/50/34 50/67/50 35/51/35 
f 35/51/35 50/67/50 51/68/51 
f 35/51/35 51/68/51 36/52/36 
f 36/52/36 51/68/51 52/69/52 
f 36/52/36 52/69/52 37/53/37 
f 37/53/37 52/69/52 53/70/53 
f 37/53/37 53/70/53 38/54/38 
f 38/54/38 53/70/53 54/71/54 
f 38/54/38 54/71/54 39/55/39 
f 39/55/39 54/71/54 55/72/55 
f 39/55/39 55/72/55 40/56/40 
f 40/56/40 55/72/55 56/73/56 
f 40/56/40 56/73/56 41/57/41 
f 41/57/41 56/73/56 57/74/57 
f 41/57/41 57/74/57 42/58/42 
f 42/58/42 57/74/57 58/75/58 
f 42/58/42 58/75/58 43/59/43 
f 43/59/43 58/75/58 59/76/59 
f 43/59/43 59/76/59 44/60/44 
f 44/60/44 59/76/59 60/77/60 
f 44/60/44 60/77/60 45/61/45 
f 45/61/45 60/77/60 61/78/61 
f 45/61/45 61/78/61 46/62/46 
f 46/62/46 61/78/61 47/79/47 
f 46/62/46 47/79/47 32/63/32 
f 47/64/47 62/80/62 63/81/63 
f 47/64/47 63/81/63 48/65/48 
f 48/65/48 63/81/63 64/82/64 
f 48/65/48 64/82/64 49/66/49 
f 49/66/49 64/82/64 65/83/65 
f 49/66/49 65/83/65 50/67/50 
f 50/67/50 65/83/65 66/84/66 
f 50/67/50 66/84/66 51/68/51 
f 51/68/51 66/84/66 67/85/67 
f 51/68/51 67/85/67 52/69/52 
f 52/69/52 67/85/67 68/86/68 
f 52/69/52 68/86/68 53/70/53 
f 53/70/53 68/86/68 69/87/69 
f 53/70/53 69/87/69 54/71/54 
f 54/71/54 69/87/69 70/88/70 
f 54/71/54 70/88/70 55/72/55 
f 55/72/55 70/88/70 71/89/71 
f 55/72/55 71/89/71 56/73/56 
f 56/73/56 71/89/71 72/90/72 
f 56/73/56 72/90/72 57/74/57 
f 57/74/57 72/90/72 73/91/73 
f 57/74/57 73/91/73 58/75/58 
f 58/75/58 73/91/73 74/92/74 
f 58/75/58 74/92/74 59/76/59 
f 59/76/59 74/92/74 75/93/75 
f 59/76/59 75/93/75 60/77/60 
f 60/77/60 75/93/75 76/94/76 
f 60/77/60 76/94/76 61/78/61 
f 61/78/61 76/94/76 62/95/62 
f 61/78/61 62/95/62 47/79/47 
f 62/80/62 77/96/77 78/97/78 
f 62/80/62 78/97/78 63/81/63 
f 63/81/63 78/97/78 79/98/79 
f 63/81/63 79/98/79 64/82/64 
f 64/82/64 79/98/79 80/99/80 
f 64/82/64 80/99/80 65/83/65 
f 65/83/65 80/99/80 81/100/81 
f 65/83/65 81/100/81 66/84/66 
f 66/84/66 81/100/81 82/101/82 
f 66/84/66 82/101/82 67/85/67 
f 67/85/67 82/101/82 83/102/83 
f 67/85/67 83/102/83 68/86/68 
f 68/86/68 83/102/83 84/103/84 
f 68/86/68 84/103/84 69/87/69 
f 69/87/69 84/103/84 85/104/85 
f 69/87/69 85/104/85 70/88/70 
f 70/88/70 85/104/85 86/105/86 
f 70/88/70 86/105/86 71/89/71 
f 71/89/71 86/105/86 87/106/87 
f 71/89/71 87/106/87 72/90/72 
f 72/90/72 87/106/87 88/107/88 
f 72/90/72 88/107/88 73/91/73 
f 73/91/73 88/107/88 89/108/89 
f 73/91/73 89/108/89 74/92/74 
f 74/92/74 89/108/89 90/109/90 
f 74/92/74 90/109/90 75/93/75 
f 75/93/75 90/109/90 91/110/91 
f 75/93/75 91/110/91 76/94/76 
f 76/94/76 91/110/91 77/111/77 
f 76/94/76 77/111/77 62/95/62 
f 92/112/92 78/97/78 77/96/77 
f 92/113/92 79/98/79 78/97/78 
f 92/114/92 80/99/80 79/98/79 
f 92/115/92 81/100/81 80/99/80 
f 92/116/92 82/101/82 81/100/81 
f 92/117/92 83/102/83 82/101/82 
f 92/118/92 84/103/84 83/102/83 
f 92/119/92 85/104/85 84/103/84 
f 92/120/92 86/105/86 85/104/85 
f 92/121/92 87/106/87 86/105/86 
f 92/122/92 88/107/88 87/106/87 
f 92/123/92 89/108/89 88/107/88 
f 92/124/92 90/109/90 89/108/89 
f 92/125/92 91/110/91 90/109/90 
f 92/126/92 77/111/77 91/110/91 
# 180 faces

