# 3ds Max Wavefront OBJ Exporter v0.97b - (c)2007 guruware
# File Created: 15.11.2017 22:34:18

mtllib x-axis.mtl

#
o x_axis
#

v  79.7760 -0.4417 3.1093
v  79.7760 7.6959 -5.0283
v  79.7760 -0.4417 -8.3990
v  79.7760 11.0666 3.1093
v  79.7760 7.6959 11.2469
v  79.7760 -0.4417 14.6176
v  79.7760 -8.5793 11.2469
v  79.7760 -11.9501 3.1093
v  79.7760 -8.5793 -5.0283
v  100.3627 -0.4417 3.1093
v  79.7149 -1.1736 3.6395
v  -3.6031 -1.1736 3.6395
v  -3.6031 -1.1736 1.8124
v  79.7149 -1.1736 1.8124
v  79.7149 0.2881 3.6395
v  79.7149 0.2881 1.8124
v  -3.6031 0.2881 1.8124
v  -3.6031 0.2881 3.6395
# 18 vertices

vn -1.0000 0.0000 0.0000
vn 0.4880 -0.0000 -0.8729
vn 0.4589 0.3400 -0.8209
vn 0.4589 -0.3400 -0.8209
vn 0.4880 0.6172 -0.6172
vn 0.4589 0.8209 -0.3400
vn 0.4880 0.8729 0.0000
vn 0.4589 0.8209 0.3400
vn 0.4880 0.6172 0.6172
vn 0.4589 0.3400 0.8209
vn 0.4880 -0.0000 0.8729
vn 0.4589 -0.3400 0.8209
vn 0.4879 -0.6172 0.6172
vn 0.4589 -0.8209 0.3400
vn 0.4879 -0.8729 -0.0000
vn 0.4589 -0.8209 -0.3400
vn 0.4879 -0.6172 -0.6172
vn -0.0000 0.0000 -1.0000
vn 0.0000 -1.0000 -0.0000
vn 0.0000 1.0000 -0.0000
vn 1.0000 -0.0000 -0.0000
vn 0.0000 0.0000 1.0000
# 22 vertex normals

vt 0.5000 0.5000 0.8020
vt 0.8536 0.8536 0.8020
vt 1.0000 0.5000 0.8020
vt 0.5000 1.0000 0.8020
vt 0.1464 0.8536 0.8020
vt 0.0000 0.5000 0.8020
vt 0.1464 0.1464 0.8020
vt 0.5000 0.0000 0.8020
vt 0.8536 0.1464 0.8020
vt 0.5000 0.5000 1.0000
vt 0.4770 0.4682 0.8014
vt 0.4770 0.4682 0.0000
vt 0.5563 0.4682 0.0000
vt 0.5563 0.4682 0.8014
vt 0.4770 0.5317 0.8014
vt 0.5563 0.5317 0.8014
vt 0.5563 0.5317 0.0000
vt 0.4770 0.5317 0.0000
# 18 texture coords

g x_axis
usemtl wire_085028177
s 1
f 1/1/1 2/2/1 3/3/1 
f 1/1/1 4/4/1 2/2/1 
f 1/1/1 5/5/1 4/4/1 
f 1/1/1 6/6/1 5/5/1 
f 1/1/1 7/7/1 6/6/1 
f 1/1/1 8/8/1 7/7/1 
f 1/1/1 9/9/1 8/8/1 
f 1/1/1 3/3/1 9/9/1 
s 8
f 3/3/2 10/10/3 10/10/4 
f 3/3/2 2/2/5 10/10/3 
f 2/2/5 10/10/6 10/10/3 
f 2/2/5 4/4/7 10/10/6 
f 4/4/7 10/10/8 10/10/6 
f 4/4/7 5/5/9 10/10/8 
f 5/5/9 10/10/10 10/10/8 
f 5/5/9 6/6/11 10/10/10 
f 6/6/11 10/10/12 10/10/10 
f 6/6/11 7/7/13 10/10/12 
f 7/7/13 10/10/14 10/10/12 
f 7/7/13 8/8/15 10/10/14 
f 8/8/15 10/10/16 10/10/14 
f 8/8/15 9/9/17 10/10/16 
f 9/9/17 10/10/4 10/10/16 
f 9/9/17 3/3/2 10/10/4 
s 1
f 10/10/18 10/10/18 10/10/18 
f 10/10/18 10/10/18 10/10/18 
f 10/10/18 10/10/18 10/10/18 
f 10/10/18 10/10/18 10/10/18 
f 10/10/18 10/10/18 10/10/18 
f 10/10/18 10/10/18 10/10/18 
f 10/10/18 10/10/18 10/10/18 
f 10/10/18 10/10/18 10/10/18 
s 2
f 11/11/19 12/12/19 13/13/19 
f 13/13/19 14/14/19 11/11/19 
s 4
f 15/15/20 16/16/20 17/17/20 
f 17/17/20 18/18/20 15/15/20 
s 8
f 11/11/21 14/14/21 16/16/21 
f 16/16/21 15/15/21 11/11/21 
s 16
f 14/14/18 13/13/18 17/17/18 
f 17/17/18 16/16/18 14/14/18 
s 32
f 13/13/1 12/12/1 18/18/1 
f 18/18/1 17/17/1 13/13/1 
s 64
f 12/12/22 11/11/22 15/15/22 
f 15/15/22 18/18/22 12/12/22 
# 44 faces

