# 3ds Max Wavefront OBJ Exporter v0.97b - (c)2007 guruware
# File Created: 20.11.2017 11:47:48

mtllib x-scale-axis.mtl

#
o x_scale_axis
#

v  48.9747 -2.3861 3.4524
v  48.9747 -1.8861 3.4524
v  48.9747 -1.8861 3.9524
v  48.9747 -2.3861 3.9524
v  -1.9578 -2.3861 3.4524
v  -1.9578 -2.3861 3.9524
v  -1.9578 -1.8861 3.9524
v  -1.9578 -1.8861 3.4524
v  54.3052 -12.1791 -6.2104
v  54.3052 7.8209 -6.2103
v  54.3052 7.8209 13.7897
v  54.3052 -12.1791 13.7896
v  50.7492 -12.1791 -6.2104
v  50.7492 -12.1791 13.7896
v  50.7492 7.8209 13.7897
v  50.7492 7.8209 -6.2103
# 16 vertices

vn 1.0000 0.0000 0.0000
vn -1.0000 -0.0000 -0.0000
vn 0.0000 -1.0000 -0.0000
vn -0.0000 -0.0000 1.0000
vn -0.0000 1.0000 0.0000
vn 0.0000 0.0000 -1.0000
# 6 vertex normals

vt 0.0000 0.0000 0.0000
vt 1.0000 0.0000 0.0000
vt 1.0000 1.0000 0.0000
vt 0.0000 1.0000 0.0000
# 4 texture coords

g x_scale_axis
usemtl 01___Default
s 2
f 1/1/1 2/2/1 3/3/1 
f 3/3/1 4/4/1 1/1/1 
s 4
f 5/1/2 6/2/2 7/3/2 
f 7/3/2 8/4/2 5/1/2 
s 8
f 1/1/3 4/2/3 6/3/3 
f 6/3/3 5/4/3 1/1/3 
s 16
f 4/1/4 3/2/4 7/3/4 
f 7/3/4 6/4/4 4/1/4 
s 32
f 3/1/5 2/2/5 8/3/5 
f 8/3/5 7/4/5 3/1/5 
s 64
f 2/1/6 1/2/6 5/3/6 
f 5/3/6 8/4/6 2/1/6 
s 2
f 9/1/1 10/2/1 11/3/1 
f 11/3/1 12/4/1 9/1/1 
s 4
f 13/1/2 14/2/2 15/3/2 
f 15/3/2 16/4/2 13/1/2 
s 8
f 9/1/3 12/2/3 14/3/3 
f 14/3/3 13/4/3 9/1/3 
s 16
f 12/1/4 11/2/4 15/3/4 
f 15/3/4 14/4/4 12/1/4 
s 32
f 11/1/5 10/2/5 16/3/5 
f 16/3/5 15/4/5 11/1/5 
s 64
f 10/1/6 9/2/6 13/3/6 
f 13/3/6 16/4/6 10/1/6 
# 24 faces

