# 3ds Max Wavefront OBJ Exporter v0.97b - (c)2007 guruware
# File Created: 17.11.2017 14:30:24

mtllib y-rot-axis.mtl

#
o y_rot_axis
#

v  -3.7805 0.0000 -47.8642
v  13.3205 3.0000 -44.8488
v  13.3205 0.0000 -44.8488
v  -3.7805 3.0000 -47.8642
v  11.6104 3.0000 -40.1504
v  -3.7805 3.0000 -42.8642
v  11.6104 0.0000 -40.1504
v  -3.7805 0.0000 -42.8642
v  28.3589 3.0000 -36.1664
v  28.3589 0.0000 -36.1664
v  25.1449 3.0000 -32.3362
v  25.1449 0.0000 -32.3362
v  39.5208 3.0000 -22.8642
v  39.5208 0.0000 -22.8642
v  35.1906 3.0000 -20.3642
v  35.1906 0.0000 -20.3642
v  45.4599 3.0000 -6.5466
v  45.4599 0.0000 -6.5466
v  40.5358 3.0000 -5.6784
v  40.5358 0.0000 -5.6784
v  45.4599 3.0000 10.8182
v  45.4599 0.0000 10.8182
v  40.5358 3.0000 9.9500
v  40.5358 0.0000 9.9500
v  39.5208 3.0000 27.1358
v  39.5208 0.0000 27.1358
v  35.1906 3.0000 24.6358
v  35.1906 0.0000 24.6358
v  28.3589 3.0000 40.4380
v  28.3589 0.0000 40.4380
v  25.1449 3.0000 36.6078
v  25.1449 0.0000 36.6078
v  13.3205 3.0000 49.1204
v  13.3205 0.0000 49.1204
v  11.6104 3.0000 44.4220
v  11.6104 0.0000 44.4220
v  -3.7805 3.0000 52.1358
v  -3.7805 0.0000 52.1358
v  -3.7805 3.0000 47.1358
v  -3.7805 0.0000 47.1358
v  -20.8815 3.0000 49.1204
v  -20.8815 0.0000 49.1204
v  -19.1714 3.0000 44.4219
v  -19.1714 0.0000 44.4219
v  -35.9199 3.0000 40.4380
v  -35.9199 0.0000 40.4380
v  -32.7060 3.0000 36.6078
v  -32.7060 0.0000 36.6078
v  -47.0818 3.0000 27.1358
v  -47.0818 0.0000 27.1358
v  -42.7517 3.0000 24.6358
v  -42.7517 0.0000 24.6358
v  -53.0209 3.0000 10.8182
v  -53.0209 0.0000 10.8182
v  -48.0969 3.0000 9.9499
v  -48.0969 0.0000 9.9499
v  -53.0209 3.0000 -6.5466
v  -53.0209 0.0000 -6.5466
v  -48.0969 3.0000 -5.6784
v  -48.0969 0.0000 -5.6784
v  -47.0818 3.0000 -22.8642
v  -47.0818 0.0000 -22.8642
v  -42.7517 3.0000 -20.3642
v  -42.7517 0.0000 -20.3642
v  -35.9199 3.0000 -36.1664
v  -35.9199 0.0000 -36.1664
v  -32.7060 3.0000 -32.3362
v  -32.7060 0.0000 -32.3362
v  -20.8815 3.0000 -44.8489
v  -20.8815 0.0000 -44.8489
v  -19.1714 3.0000 -40.1504
v  -19.1714 0.0000 -40.1504
# 72 vertices

vn 0.0000 0.0000 -1.0000
vn 0.3420 0.0000 -0.9397
vn 0.0000 1.0000 -0.0000
vn -0.0000 0.0000 1.0000
vn -0.3420 0.0000 0.9397
vn 0.0000 -1.0000 -0.0000
vn 0.6428 0.0000 -0.7660
vn -0.6428 0.0000 0.7660
vn 0.8660 0.0000 -0.5000
vn -0.8660 0.0000 0.5000
vn 0.9848 0.0000 -0.1736
vn -0.9848 0.0000 0.1736
vn 0.9848 0.0000 0.1736
vn -0.9848 0.0000 -0.1736
vn 0.8660 0.0000 0.5000
vn -0.8660 0.0000 -0.5000
vn 0.6428 0.0000 0.7660
vn -0.6428 0.0000 -0.7660
vn 0.3420 0.0000 0.9397
vn -0.3420 0.0000 -0.9397
# 20 vertex normals

vt 0.0000 0.0000 0.0000
vt 0.2500 0.0556 0.0000
vt 0.0000 0.0556 0.0000
vt 0.2500 0.0000 0.0000
vt 0.5000 0.0556 0.0000
vt 0.5000 0.0000 0.0000
vt 0.7500 0.0556 0.0000
vt 0.7500 0.0000 0.0000
vt 1.0000 0.0556 0.0000
vt 1.0000 0.0000 0.0000
vt 0.2500 0.1111 0.0000
vt 0.0000 0.1111 0.0000
vt 0.5000 0.1111 0.0000
vt 0.7500 0.1111 0.0000
vt 1.0000 0.1111 0.0000
vt 0.2500 0.1667 0.0000
vt 0.0000 0.1667 0.0000
vt 0.5000 0.1667 0.0000
vt 0.7500 0.1667 0.0000
vt 1.0000 0.1667 0.0000
vt 0.2500 0.2222 0.0000
vt 0.0000 0.2222 0.0000
vt 0.5000 0.2222 0.0000
vt 0.7500 0.2222 0.0000
vt 1.0000 0.2222 0.0000
vt 0.2500 0.2778 0.0000
vt 0.0000 0.2778 0.0000
vt 0.5000 0.2778 0.0000
vt 0.7500 0.2778 0.0000
vt 1.0000 0.2778 0.0000
vt 0.2500 0.3333 0.0000
vt 0.0000 0.3333 0.0000
vt 0.5000 0.3333 0.0000
vt 0.7500 0.3333 0.0000
vt 1.0000 0.3333 0.0000
vt 0.2500 0.3889 0.0000
vt 0.0000 0.3889 0.0000
vt 0.5000 0.3889 0.0000
vt 0.7500 0.3889 0.0000
vt 1.0000 0.3889 0.0000
vt 0.2500 0.4444 0.0000
vt 0.0000 0.4444 0.0000
vt 0.5000 0.4444 0.0000
vt 0.7500 0.4444 0.0000
vt 1.0000 0.4444 0.0000
vt 0.2500 0.5000 0.0000
vt 0.0000 0.5000 0.0000
vt 0.5000 0.5000 0.0000
vt 0.7500 0.5000 0.0000
vt 1.0000 0.5000 0.0000
vt 0.2500 0.5556 0.0000
vt 0.0000 0.5556 0.0000
vt 0.5000 0.5556 0.0000
vt 0.7500 0.5556 0.0000
vt 1.0000 0.5556 0.0000
vt 0.2500 0.6111 0.0000
vt 0.0000 0.6111 0.0000
vt 0.5000 0.6111 0.0000
vt 0.7500 0.6111 0.0000
vt 1.0000 0.6111 0.0000
vt 0.2500 0.6667 0.0000
vt 0.0000 0.6667 0.0000
vt 0.5000 0.6667 0.0000
vt 0.7500 0.6667 0.0000
vt 1.0000 0.6667 0.0000
vt 0.2500 0.7222 0.0000
vt 0.0000 0.7222 0.0000
vt 0.5000 0.7222 0.0000
vt 0.7500 0.7222 0.0000
vt 1.0000 0.7222 0.0000
vt 0.2500 0.7778 0.0000
vt 0.0000 0.7778 0.0000
vt 0.5000 0.7778 0.0000
vt 0.7500 0.7778 0.0000
vt 1.0000 0.7778 0.0000
vt 0.2500 0.8333 0.0000
vt 0.0000 0.8333 0.0000
vt 0.5000 0.8333 0.0000
vt 0.7500 0.8333 0.0000
vt 1.0000 0.8333 0.0000
vt 0.2500 0.8889 0.0000
vt 0.0000 0.8889 0.0000
vt 0.5000 0.8889 0.0000
vt 0.7500 0.8889 0.0000
vt 1.0000 0.8889 0.0000
vt 0.2500 0.9444 0.0000
vt 0.0000 0.9444 0.0000
vt 0.5000 0.9444 0.0000
vt 0.7500 0.9444 0.0000
vt 1.0000 0.9444 0.0000
vt 0.2500 1.0000 0.0000
vt 0.0000 1.0000 0.0000
vt 0.5000 1.0000 0.0000
vt 0.7500 1.0000 0.0000
vt 1.0000 1.0000 0.0000
# 95 texture coords

g y_rot_axis
usemtl 01___Default
s 2
f 1/1/1 2/2/2 3/3/2 
f 1/1/1 4/4/1 2/2/2 
s 4
f 4/4/3 5/5/3 2/2/3 
f 4/4/3 6/6/3 5/5/3 
s 2
f 6/6/4 7/7/5 5/5/5 
f 6/6/4 8/8/4 7/7/5 
s 4
f 8/8/6 3/9/6 7/7/6 
f 8/8/6 1/10/6 3/9/6 
s 2
f 3/3/2 9/11/7 10/12/7 
f 3/3/2 2/2/2 9/11/7 
s 4
f 2/2/3 11/13/3 9/11/3 
f 2/2/3 5/5/3 11/13/3 
s 2
f 5/5/5 12/14/8 11/13/8 
f 5/5/5 7/7/5 12/14/8 
s 4
f 7/7/6 10/15/6 12/14/6 
f 7/7/6 3/9/6 10/15/6 
s 2
f 10/12/7 13/16/9 14/17/9 
f 10/12/7 9/11/7 13/16/9 
s 4
f 9/11/3 15/18/3 13/16/3 
f 9/11/3 11/13/3 15/18/3 
s 2
f 11/13/8 16/19/10 15/18/10 
f 11/13/8 12/14/8 16/19/10 
s 4
f 12/14/6 14/20/6 16/19/6 
f 12/14/6 10/15/6 14/20/6 
s 2
f 14/17/9 17/21/11 18/22/11 
f 14/17/9 13/16/9 17/21/11 
s 4
f 13/16/3 19/23/3 17/21/3 
f 13/16/3 15/18/3 19/23/3 
s 2
f 15/18/10 20/24/12 19/23/12 
f 15/18/10 16/19/10 20/24/12 
s 4
f 16/19/6 18/25/6 20/24/6 
f 16/19/6 14/20/6 18/25/6 
s 2
f 18/22/11 21/26/13 22/27/13 
f 18/22/11 17/21/11 21/26/13 
s 4
f 17/21/3 23/28/3 21/26/3 
f 17/21/3 19/23/3 23/28/3 
s 2
f 19/23/12 24/29/14 23/28/14 
f 19/23/12 20/24/12 24/29/14 
s 4
f 20/24/6 22/30/6 24/29/6 
f 20/24/6 18/25/6 22/30/6 
s 2
f 22/27/13 25/31/15 26/32/15 
f 22/27/13 21/26/13 25/31/15 
s 4
f 21/26/3 27/33/3 25/31/3 
f 21/26/3 23/28/3 27/33/3 
s 2
f 23/28/14 28/34/16 27/33/16 
f 23/28/14 24/29/14 28/34/16 
s 4
f 24/29/6 26/35/6 28/34/6 
f 24/29/6 22/30/6 26/35/6 
s 2
f 26/32/15 29/36/17 30/37/17 
f 26/32/15 25/31/15 29/36/17 
s 4
f 25/31/3 31/38/3 29/36/3 
f 25/31/3 27/33/3 31/38/3 
s 2
f 27/33/16 32/39/18 31/38/18 
f 27/33/16 28/34/16 32/39/18 
s 4
f 28/34/6 30/40/6 32/39/6 
f 28/34/6 26/35/6 30/40/6 
s 2
f 30/37/17 33/41/19 34/42/19 
f 30/37/17 29/36/17 33/41/19 
s 4
f 29/36/3 35/43/3 33/41/3 
f 29/36/3 31/38/3 35/43/3 
s 2
f 31/38/18 36/44/20 35/43/20 
f 31/38/18 32/39/18 36/44/20 
s 4
f 32/39/6 34/45/6 36/44/6 
f 32/39/6 30/40/6 34/45/6 
s 2
f 34/42/19 37/46/4 38/47/4 
f 34/42/19 33/41/19 37/46/4 
s 4
f 33/41/3 39/48/3 37/46/3 
f 33/41/3 35/43/3 39/48/3 
s 2
f 35/43/20 40/49/1 39/48/1 
f 35/43/20 36/44/20 40/49/1 
s 4
f 36/44/6 38/50/6 40/49/6 
f 36/44/6 34/45/6 38/50/6 
s 2
f 38/47/4 41/51/5 42/52/5 
f 38/47/4 37/46/4 41/51/5 
s 4
f 37/46/3 43/53/3 41/51/3 
f 37/46/3 39/48/3 43/53/3 
s 2
f 39/48/1 44/54/2 43/53/2 
f 39/48/1 40/49/1 44/54/2 
s 4
f 40/49/6 42/55/6 44/54/6 
f 40/49/6 38/50/6 42/55/6 
s 2
f 42/52/5 45/56/8 46/57/8 
f 42/52/5 41/51/5 45/56/8 
s 4
f 41/51/3 47/58/3 45/56/3 
f 41/51/3 43/53/3 47/58/3 
s 2
f 43/53/2 48/59/7 47/58/7 
f 43/53/2 44/54/2 48/59/7 
s 4
f 44/54/6 46/60/6 48/59/6 
f 44/54/6 42/55/6 46/60/6 
s 2
f 46/57/8 49/61/10 50/62/10 
f 46/57/8 45/56/8 49/61/10 
s 4
f 45/56/3 51/63/3 49/61/3 
f 45/56/3 47/58/3 51/63/3 
s 2
f 47/58/7 52/64/9 51/63/9 
f 47/58/7 48/59/7 52/64/9 
s 4
f 48/59/6 50/65/6 52/64/6 
f 48/59/6 46/60/6 50/65/6 
s 2
f 50/62/10 53/66/12 54/67/12 
f 50/62/10 49/61/10 53/66/12 
s 4
f 49/61/3 55/68/3 53/66/3 
f 49/61/3 51/63/3 55/68/3 
s 2
f 51/63/9 56/69/11 55/68/11 
f 51/63/9 52/64/9 56/69/11 
s 4
f 52/64/6 54/70/6 56/69/6 
f 52/64/6 50/65/6 54/70/6 
s 2
f 54/67/12 57/71/14 58/72/14 
f 54/67/12 53/66/12 57/71/14 
s 4
f 53/66/3 59/73/3 57/71/3 
f 53/66/3 55/68/3 59/73/3 
s 2
f 55/68/11 60/74/13 59/73/13 
f 55/68/11 56/69/11 60/74/13 
s 4
f 56/69/6 58/75/6 60/74/6 
f 56/69/6 54/70/6 58/75/6 
s 2
f 58/72/14 61/76/16 62/77/16 
f 58/72/14 57/71/14 61/76/16 
s 4
f 57/71/3 63/78/3 61/76/3 
f 57/71/3 59/73/3 63/78/3 
s 2
f 59/73/13 64/79/15 63/78/15 
f 59/73/13 60/74/13 64/79/15 
s 4
f 60/74/6 62/80/6 64/79/6 
f 60/74/6 58/75/6 62/80/6 
s 2
f 62/77/16 65/81/18 66/82/18 
f 62/77/16 61/76/16 65/81/18 
s 4
f 61/76/3 67/83/3 65/81/3 
f 61/76/3 63/78/3 67/83/3 
s 2
f 63/78/15 68/84/17 67/83/17 
f 63/78/15 64/79/15 68/84/17 
s 4
f 64/79/6 66/85/6 68/84/6 
f 64/79/6 62/80/6 66/85/6 
s 2
f 66/82/18 69/86/20 70/87/20 
f 66/82/18 65/81/18 69/86/20 
s 4
f 65/81/3 71/88/3 69/86/3 
f 65/81/3 67/83/3 71/88/3 
s 2
f 67/83/17 72/89/19 71/88/19 
f 67/83/17 68/84/17 72/89/19 
s 4
f 68/84/6 70/90/6 72/89/6 
f 68/84/6 66/85/6 70/90/6 
s 2
f 70/87/20 4/91/1 1/92/1 
f 70/87/20 69/86/20 4/91/1 
s 4
f 69/86/3 6/93/3 4/91/3 
f 69/86/3 71/88/3 6/93/3 
s 2
f 71/88/19 8/94/4 6/93/4 
f 71/88/19 72/89/19 8/94/4 
s 4
f 72/89/6 1/95/6 8/94/6 
f 72/89/6 70/90/6 1/95/6 
# 144 faces

