# 3ds Max Wavefront OBJ Exporter v0.97b - (c)2007 guruware
# File Created: 26.10.2017 23:41:35

mtllib box.mtl

#
o default
#

v  1.0000 -1.0000 1.0000
v  -1.0000 -1.0000 1.0000
v  -1.0000 -1.0000 -1.0000
v  -1.0000 1.0000 -1.0000
v  -1.0000 1.0000 1.0000
v  1.0000 1.0000 1.0000
v  1.0000 1.0000 -1.0000
v  1.0000 -1.0000 -1.0000
# 8 vertices

vn 0.0000 -1.0000 -0.0000
vn 0.0000 1.0000 -0.0000
vn 1.0000 0.0000 -0.0000
vn 0.0000 0.0000 1.0000
vn -1.0000 0.0000 -0.0000
vn 0.0000 0.0000 -1.0000
# 6 vertex normals

vt 0.6506 0.9066 0.0000
vt 0.6506 0.0804 0.0000
vt 0.5153 0.0804 0.0000
vt 0.1958 0.0916 0.0000
vt 0.3227 0.0916 0.0000
vt 0.3227 0.8666 0.0000
vt 0.0170 0.9254 0.0000
vt 0.1585 0.9254 0.0000
vt 0.1585 0.0615 0.0000
vt 0.8219 0.9416 0.0000
vt 0.8219 0.0542 0.0000
vt 0.6822 0.0542 0.0000
vt 0.4848 0.1160 0.0000
vt 0.4848 0.8710 0.0000
vt 0.3611 0.8710 0.0000
vt 0.8586 0.8820 0.0000
vt 0.8586 0.1270 0.0000
vt 0.9823 0.1270 0.0000
vt 0.5166 0.8985 0.0000
vt 0.1958 0.8666 0.0000
vt 0.0170 0.0615 0.0000
vt 0.6836 0.9329 0.0000
vt 0.3611 0.1160 0.0000
vt 0.9823 0.8820 0.0000
# 24 texture coords

g default
usemtl Material
s off
f 1/1/1 2/2/1 3/3/1 
f 4/4/2 5/5/2 6/6/2 
f 7/7/3 6/8/3 1/9/3 
f 6/10/4 5/11/4 2/12/4 
f 2/13/5 5/14/5 4/15/5 
f 8/16/6 3/17/6 4/18/6 
f 8/19/1 1/1/1 3/3/1 
f 7/20/2 4/4/2 6/6/2 
f 8/21/3 7/7/3 1/9/3 
f 1/22/4 6/10/4 2/12/4 
f 3/23/5 2/13/5 4/15/5 
f 7/24/6 8/16/6 4/18/6 
# 12 faces

